<svg xmlns="http://www.w3.org/2000/svg" viewBox="0 0 16 16" width="16" height="16">
  <defs>
    <linearGradient id="bg" x1="0" y1="0" x2="0" y2="16" gradientUnits="userSpaceOnUse">
      <stop offset="0" stop-color="#1e1e2a"/>
      <stop offset="1" stop-color="#0b0b10"/>
    </linearGradient>
    <radialGradient id="glow" cx="8.0" cy="8.96" r="6.4" gradientUnits="userSpaceOnUse">
      <stop offset="0" stop-color="#6a5cf6" stop-opacity=".32"/>
      <stop offset="1" stop-color="#6a5cf6" stop-opacity="0"/>
    </radialGradient>
    <clipPath id="forma"><path d="M15.25 8C15.25 15.21 15.21 15.25 8 15.25C0.79 15.25 0.75 15.21 0.75 8C0.75 0.79 0.79 0.75 8 0.75C15.21 0.75 15.25 0.79 15.25 8Z"/></clipPath>
  </defs>
  <path d="M15.25 8C15.25 15.21 15.21 15.25 8 15.25C0.79 15.25 0.75 15.21 0.75 8C0.75 0.79 0.79 0.75 8 0.75C15.21 0.75 15.25 0.79 15.25 8Z" fill="url(#bg)"/>
  <path d="M15.25 8C15.25 15.21 15.21 15.25 8 15.25C0.79 15.25 0.75 15.21 0.75 8C0.75 0.79 0.79 0.75 8 0.75C15.21 0.75 15.25 0.79 15.25 8Z" fill="url(#glow)"/>
  <path d="M15.25 8C15.25 15.21 15.21 15.25 8 15.25C0.79 15.25 0.75 15.21 0.75 8C0.75 0.79 0.79 0.75 8 0.75C15.21 0.75 15.25 0.79 15.25 8Z" fill="none" stroke="#fff" stroke-opacity=".14" stroke-width="1.5" clip-path="url(#forma)"/>
  <path d="M2.5 8 A5.5 5.5 0 0 1 13.5 8" fill="none" stroke="#8f84ff" stroke-width="1"/>
  <circle cx="8" cy="8.2" r="5" fill="#ffffff"/>
  <path d="M4.6 11 L2.4 14.2 L7.6 12.9 Z" fill="#ffffff"/>
  <rect x="2" y="6" width="2.4" height="5" rx=".9" fill="#8f84ff"/>
  <rect x="11.6" y="6" width="2.4" height="5" rx=".9" fill="#8f84ff"/>
  <rect x="6" y="6" width="1" height="2" fill="#14121c"/>
  <rect x="9" y="6" width="1" height="2" fill="#14121c"/>
  <rect x="5" y="9" width="6" height="1" fill="#14121c"/>
  <rect x="6" y="10" width="4" height="1" fill="#14121c"/>
  <rect x="7" y="10" width="2" height="1" fill="#ff7a93"/>
</svg>
