<svg xmlns="http://www.w3.org/2000/svg" viewBox="0 0 16 16" width="16" height="16">
  <defs>
    <linearGradient id="bg" gradientUnits="userSpaceOnUse" x1="1.88" y1="1.25" x2="14.12" y2="14.75">
      <stop offset="0" stop-color="#6f7dff"/>
      <stop offset="0.5" stop-color="#9150ff"/>
      <stop offset="1" stop-color="#ff5a7a"/>
    </linearGradient>
  </defs>
  <path d="M15.25 8C15.25 15.21 15.21 15.25 8 15.25C0.79 15.25 0.75 15.21 0.75 8C0.75 0.79 0.79 0.75 8 0.75C15.21 0.75 15.25 0.79 15.25 8Z" fill="url(#bg)"/>
  <path d="M2.5 8 A5.5 5.5 0 0 1 13.5 8" fill="none" stroke="#1c1640" stroke-width="1"/>
  <circle cx="8" cy="8.2" r="5" fill="#fff"/>
  <path d="M4.6 11 L2.4 14.2 L7.6 12.9 Z" fill="#fff"/>
  <rect x="2" y="6" width="2.4" height="5" rx=".9" fill="#1c1640"/>
  <rect x="11.6" y="6" width="2.4" height="5" rx=".9" fill="#1c1640"/>
  <rect x="6" y="6" width="1" height="2" fill="#1c1640"/>
  <rect x="9" y="6" width="1" height="2" fill="#1c1640"/>
  <rect x="5" y="9" width="6" height="1" fill="#1c1640"/>
  <rect x="6" y="10" width="4" height="1" fill="#1c1640"/>
  <rect x="7" y="10" width="2" height="1" fill="#ff6b8f"/>
</svg>
